HIERARCHY
ROOT Hips
{
	OFFSET 0.00000 0.00000 0.00000
	CHANNELS 6 Xposition Yposition Zposition Yrotation Zrotation Xrotation 
	JOINT Lumbar
	{
		OFFSET 0 0 0
		CHANNELS 3 Zrotation Xrotation Yrotation
		JOINT Neck
		{
			OFFSET 0.00 0.2701 0.00
			CHANNELS 3 Zrotation Xrotation Yrotation
			End Site
			{
				OFFSET 0.00 0.1379 0.00
			}
		}
		JOINT RightShoulder
		{
			OFFSET 0.0119 0.2289 0.1181
			CHANNELS 3 Zrotation Xrotation Yrotation
			JOINT RightElbow
			{
				OFFSET 0.00 -0.1475 0.00
				CHANNELS 2 Zrotation Yrotation
				JOINT RightWrist
				{
					OFFSET 0.00 -0.1605 0.00
					CHANNELS 2 Zrotation Xrotation
					End Site
					{
						OFFSET 0.0040 -0.1068 0.0006
					}
				}
			}
		}
		JOINT LeftShoulder
		{
			OFFSET 0.0119 0.2289 -0.1181
			CHANNELS 3 Zrotation Xrotation Yrotation
			JOINT LeftElbow
			{
				OFFSET 0.00 -0.1475 0.00
				CHANNELS 2 Zrotation Yrotation
				JOINT LeftWrist
				{
					OFFSET 0.00 -0.1605 0.00
					CHANNELS 2 Zrotation Xrotation
					End Site
					{
						OFFSET 0.0040 -0.1068 -0.0006
					}
				}
			}
		}
	}
	JOINT RightHip
	{
		OFFSET 0.0316 -0.0424 0.0458
		CHANNELS 3 Zrotation Xrotation Yrotation
		JOINT RightKnee
		{
			OFFSET 0.00 -0.2438 0.00
			CHANNELS 1 Zrotation
			JOINT RightAnkle
			{
				OFFSET 0.00 -0.2449 0.00
				CHANNELS 3 Zrotation Xrotation Yrotation
				End Site
				{
					OFFSET 0.1237 -0.0542 0.0051
				}
			}
		}
	}
	JOINT LeftHip
	{
		OFFSET 0.0316 -0.0424 -0.0458
		CHANNELS 3 Zrotation Xrotation Yrotation
		JOINT LeftKnee
		{
			OFFSET 0.00 -0.2438 0.00
			CHANNELS 1 Zrotation
			JOINT LeftAnkle
			{
				OFFSET 0.00 -0.2449 0.00
				CHANNELS 3 Zrotation Xrotation Yrotation
				End Site
				{
					OFFSET 0.1237 -0.0542 -0.0051
				}
			}
		}
	}
}
MOTION
Frames: 29
Frame Time: 0.02
0 0.57926 -0 184.26831 0 -3.08502 2.0111 2.48925 -0.89347 -30.48872 4.85211 -0.30597 -11.9866 -69.83502 -77.86304 24.24106 74.95576 -20.10114 -2.47512 2.10059 70.72834 61.18624 21.71358 -73.67914 -30.54577 2.68306 -4.27027 3.33045 5.68181 -6.51848 -1.21051 -3.92133 -7.56279 -1.50112 4.2861 -2.07203 -7.26069 4.36859 2.44596 0.49211
1e-05 0.57926 2e-05 184.2634 0 -3.08616 2.00811 2.49025 -0.90049 -30.47763 4.8525 -0.30959 -11.95226 -69.81605 -77.82683 24.23928 74.93291 -20.08974 -2.47723 2.02078 70.72501 61.26383 21.71028 -73.71462 -30.50517 2.69291 -4.27091 3.32857 5.68048 -6.51355 -1.21724 -3.93188 -7.55574 -1.50078 4.2848 -2.07212 -7.26282 4.37021 2.44578 0.49601
1e-05 0.57927 5e-05 184.25843 0 -3.08731 2.00517 2.49128 -0.90742 -30.46665 4.85286 -0.31313 -11.91803 -69.79713 -77.79077 24.2375 74.91023 -20.07848 -2.47935 1.94156 70.72172 61.34083 21.70699 -73.74989 -30.46488 2.70269 -4.27152 3.3267 5.67918 -6.5087 -1.22391 -3.94236 -7.54868 -1.50049 4.28352 -2.07214 -7.26489 4.37194 2.44558 0.49988
2e-05 0.57927 7e-05 184.25314 0 -3.08848 2.00242 2.49233 -0.91407 -30.45616 4.85313 -0.31643 -11.88353 -69.77828 -77.75479 24.23573 74.88782 -20.06767 -2.48162 1.86407 70.71859 61.41618 21.7037 -73.78457 -30.42538 2.71231 -4.27204 3.32483 5.67787 -6.50406 -1.23039 -3.95266 -7.54134 -1.50041 4.28225 -2.07186 -7.26677 4.37452 2.4453 0.50351
3e-05 0.57927 0.0001 184.24954 0 -3.08956 1.99868 2.49314 -0.92221 -30.44326 4.85394 -0.32102 -11.85 -69.7591 -77.71815 24.23393 74.86374 -20.05447 -2.48319 1.7776 70.71468 61.50021 21.70037 -73.82227 -30.38164 2.72281 -4.27308 3.32294 5.67645 -6.49825 -1.23788 -3.96392 -7.53529 -1.49924 4.2809 -2.07317 -7.2697 4.37303 2.44541 0.50824
3e-05 0.57927 0.00012 184.24237 0 -3.09082 1.997 2.49454 -0.9272 -30.43536 4.85356 -0.32287 -11.81473 -69.74062 -77.6831 24.23218 74.84341 -20.04633 -2.4862 1.71006 70.71238 61.56581 21.69717 -73.85363 -30.34694 2.73143 -4.27298 3.32112 5.67538 -6.49496 -1.24323 -3.97312 -7.52666 -1.50037 4.27972 -2.07111 -7.2704 4.37986 2.44473 0.51074
2e-05 0.57927 0.00014 184.22478 0 -3.09253 2.00142 2.49708 -0.92326 -30.44238 4.85005 -0.31695 -11.77091 -69.72387 -77.65012 24.23064 74.83168 -20.05255 -2.49374 1.69602 70.71488 61.58059 21.69395 -73.86711 -30.33694 2.73484 -4.26983 3.31933 5.67409 -6.49844 -1.24239 -3.97666 -7.50927 -1.50824 4.27893 -2.0592 -7.26466 4.41326 2.44155 0.50578
-1e-05 0.57927 0.00016 184.20367 0 -3.09445 2.00783 2.50029 -0.91621 -30.45425 4.84535 -0.30829 -11.72587 -69.70788 -77.61906 24.22915 74.82402 -20.06382 -2.50268 1.70076 70.71887 61.57687 21.69094 -73.87433 -30.3361 2.73636 -4.2655 3.31767 5.67331 -6.5045 -1.23944 -3.97811 -7.48956 -1.51838 4.27833 -2.04392 -7.2567 4.45447 2.4376 0.49867
-3e-05 0.57927 0.00018 184.18448 0 -3.09631 2.0131 2.50353 -0.91069 -30.46318 4.84104 -0.30101 -11.68385 -69.69159 -77.5887 24.22759 74.81572 -20.07255 -2.51063 1.69621 70.72201 61.58146 21.68801 -73.8846 -30.33126 2.73875 -4.26164 3.31603 5.67309 -6.5095 -1.23758 -3.98048 -7.47201 -1.52726 4.27763 -2.0306 -7.24993 4.48975 2.43425 0.49351
-5e-05 0.57927 0.0002 184.16388 0 -3.09798 2.01945 2.5054 -0.90457 -30.47522 4.83718 -0.29319 -11.63174 -69.67494 -77.55204 24.22619 74.80249 -20.08232 -2.52001 1.69526 70.72612 61.58606 21.68421 -73.89378 -30.32578 2.74108 -4.25807 3.31396 5.6697 -6.51403 -1.23509 -3.98296 -7.44989 -1.53715 4.27687 -2.0157 -7.24244 4.53487 2.42995 0.48471
-7e-05 0.57927 0.00022 184.14548 0 -3.10015 2.02392 2.51025 -0.89911 -30.48194 4.83232 -0.28583 -11.59994 -69.65942 -77.52851 24.22453 74.80027 -20.09113 -2.52681 1.69079 70.72825 61.58677 21.68243 -73.90401 -30.32375 2.74313 -4.2536 3.31296 5.67281 -6.52014 -1.23349 -3.9847 -7.43661 -1.54544 4.27645 -2.003 -7.23586 4.5616 2.42731 0.4824
-7e-05 0.57927 0.00025 184.13321 0 -3.1032 2.02341 2.52341 -0.895 -30.47265 4.82318 -0.28043 -11.62795 -69.64511 -77.54446 24.22165 74.82947 -20.09597 -2.52563 1.6763 70.72736 61.57669 21.68506 -73.91646 -30.32941 2.74445 -4.24707 3.31376 5.69575 -6.53027 -1.23436 -3.98501 -7.44928 -1.54898 4.27539 -1.99976 -7.23285 4.53364 2.43045 0.5035
-6e-05 0.57927 0.00027 184.12346 0 -3.10683 2.02076 2.53947 -0.89196 -30.45787 4.81335 -0.27549 -11.67566 -69.63214 -77.57274 24.21864 74.8693 -20.09962 -2.52194 1.65691 70.72391 61.56411 21.68998 -73.93069 -30.33815 2.74563 -4.2396 3.31588 5.72481 -6.54192 -1.23632 -3.98462 -7.47074 -1.55077 4.27499 -1.99838 -7.23071 4.48723 2.43505 0.53026
-6e-05 0.57927 0.0003 184.11308 0 -3.1105 2.01865 2.55409 -0.88912 -30.4457 4.8051 -0.27043 -11.71226 -69.61987 -77.5931 24.21593 74.90283 -20.10396 -2.51975 1.63681 70.71978 61.55579 21.6945 -73.94545 -30.34521 2.74713 -4.23252 3.31807 5.74981 -6.55263 -1.23814 -3.98448 -7.48755 -1.55326 4.27524 -1.99451 -7.22782 4.45063 2.43834 0.55121
-6e-05 0.57928 0.00034 184.10032 0 -3.11293 2.01857 2.56939 -0.88298 -30.43324 4.79171 -0.26525 -11.75849 -69.60258 -77.62382 24.21202 74.94238 -20.10817 -2.51603 1.62938 70.72344 61.53398 21.69607 -73.95397 -30.35378 2.74746 -4.22574 3.31729 5.7804 -6.56427 -1.23838 -3.98454 -7.50708 -1.55635 4.27132 -1.99751 -7.22637 4.40847 2.44445 0.58582
-4e-05 0.57928 0.00034 184.09327 0 -3.11807 2.01354 2.58376 -0.88439 -30.41999 4.78858 -0.26004 -11.78864 -69.59546 -77.63523 24.2108 74.97226 -20.1119 -2.51493 1.59465 70.71033 61.53946 21.70466 -73.97642 -30.35979 2.75026 -4.2179 3.32322 5.80057 -6.57458 -1.24221 -3.98408 -7.52303 -1.55761 4.27645 -1.98665 -7.22215 4.3732 2.4449 0.59327
2e-05 0.57929 0.00025 184.10042 0 -3.13048 1.99714 2.5965 -0.90303 -30.40601 4.81635 -0.25839 -11.77561 -69.62102 -77.59547 24.2154 74.96966 -20.1178 -2.52122 1.48129 70.65084 61.62518 21.72934 -74.03326 -30.35812 2.75943 -4.20956 3.34543 5.79249 -6.57827 -1.25566 -3.98197 -7.52719 -1.5553 4.30449 -1.93734 -7.2103 4.36315 2.43057 0.52509
0.0001 0.5793 0.00011 184.11348 0 -3.14559 1.97548 2.60787 -0.92982 -30.39131 4.85399 -0.2561 -11.74459 -69.6558 -77.53481 24.22307 74.95775 -20.12261 -2.53029 1.34123 70.57477 61.73781 21.76163 -74.10477 -30.35369 2.77119 -4.19984 3.37469 5.77338 -6.58092 -1.27269 -3.97941 -7.52743 -1.55093 4.34196 -1.87409 -7.19567 4.36032 2.41028 0.4293
0.00017 0.57932 -1e-05 184.12439 0 -3.15955 1.95512 2.6188 -0.95517 -30.3769 4.88559 -0.25153 -11.71786 -69.68321 -77.48042 24.23038 74.95185 -20.1258 -2.53839 1.21637 70.50663 61.83535 21.79206 -74.17193 -30.35039 2.78208 -4.18928 3.40199 5.75796 -6.58586 -1.28813 -3.97737 -7.52928 -1.54687 4.37634 -1.81695 -7.18208 4.35303 2.3919 0.34558
0.00023 0.57933 -9e-05 184.13289 0 -3.17332 1.9394 2.63435 -0.97121 -30.36268 4.92389 -0.25745 -11.70824 -69.72432 -77.44039 24.23316 74.93784 -20.1379 -2.5452 1.07893 70.4364 61.94466 21.81531 -74.22927 -30.34777 2.79165 -4.18468 3.42412 5.74817 -6.58363 -1.3035 -3.97412 -7.53204 -1.54562 4.40571 -1.76039 -7.16913 4.35003 2.37688 0.26386
0.00034 0.57934 -0.00028 184.14807 0 -3.18798 1.91265 2.63985 -1.00827 -30.34767 4.95037 -0.24183 -11.65844 -69.73876 -77.36495 24.24633 74.93957 -20.13117 -2.55536 0.96079 70.36705 62.03612 21.85593 -74.31063 -30.34301 2.80462 -4.16761 3.45866 5.72419 -6.59552 -1.31979 -3.97308 -7.53202 -1.53774 4.44773 -1.69981 -7.15456 4.34011 2.3535 0.17163
0.00058 0.57939 -0.00077 184.17775 0 -3.20561 1.85801 2.61871 -1.10385 -30.33345 4.94359 -0.16296 -11.5018 -69.67991 -77.19973 24.28606 74.97605 -20.07338 -2.57427 0.9078 70.30052 62.06939 21.93771 -74.45394 -30.33297 2.8261 -4.11418 3.52585 5.66174 -6.6513 -1.33823 -3.98037 -7.52375 -1.51487 4.52255 -1.62711 -7.13296 4.30865 2.3078 0.0545
0.00088 0.57944 -0.00137 184.21435 0 -3.22382 1.79227 2.5874 -1.21976 -30.31801 4.92415 -0.06315 -11.30519 -69.59336 -76.99887 24.3368 75.03019 -19.99675 -2.59645 0.87426 70.23613 62.0841 22.03783 -74.62114 -30.3208 2.85095 -4.04866 3.60527 5.58574 -6.72046 -1.35737 -3.98958 -7.51302 -1.48492 4.60976 -1.55167 -7.11037 4.27016 2.25406 -0.07173
0.00116 0.57948 -0.00193 184.24948 0 -3.24098 1.73074 2.56011 -1.3248 -30.30124 4.90941 0.02449 -11.12712 -69.51782 -76.81253 24.38292 75.08398 -19.92807 -2.61703 0.82827 70.17321 62.10895 22.13255 -74.77777 -30.30973 2.87441 -3.99018 3.67902 5.5172 -6.78038 -1.37584 -3.99645 -7.5044 -1.45634 4.69119 -1.48039 -7.09041 4.23543 2.20442 -0.19215
0.00142 0.57953 -0.00245 184.278 0 -3.26155 1.6724 2.53501 -1.43725 -30.29217 4.89979 0.1233 -10.94732 -69.44946 -76.63305 24.42592 75.10701 -19.86114 -2.63814 0.79627 70.09949 62.12796 22.21437 -74.9333 -30.2983 2.89738 -3.92517 3.75346 5.44277 -6.85353 -1.39591 -4.00921 -7.4916 -1.43535 4.77357 -1.39636 -7.06134 4.19863 2.15254 -0.32084
0.00173 0.57957 -0.00308 184.32154 0 -3.27513 1.60502 2.50335 -1.53868 -30.26709 4.87598 0.20387 -10.76128 -69.35923 -76.43045 24.47999 75.19595 -19.78708 -2.65894 0.74047 70.04888 62.15384 22.3283 -75.09713 -30.2868 2.92212 -3.87083 3.8293 5.37754 -6.90242 -1.4128 -4.01051 -7.48678 -1.39707 4.85679 -1.33837 -7.05082 4.16429 2.10366 -0.43383
0.00216 0.57957 -0.00401 184.40767 0 -3.26907 1.51411 2.45271 -1.6075 -30.19549 4.81947 0.22829 -10.57273 -69.2171 -76.17808 24.54593 75.48512 -19.68977 -2.67761 0.61101 70.06214 62.20798 22.51863 -75.27326 -30.27847 2.95098 -3.84986 3.9058 5.34097 -6.87999 -1.42035 -3.97678 -7.50616 -1.3112 4.93925 -1.35355 -7.09369 4.13904 2.06361 -0.5034
0.00263 0.57956 -0.00506 184.50822 0 -3.25598 1.41479 2.39648 -1.66402 -30.1083 4.74857 0.23371 -10.3784 -69.05356 -75.90262 24.6264 75.83665 -19.58754 -2.69597 0.45757 70.09834 62.26879 22.74243 -75.4576 -30.26955 2.98147 -3.83991 3.98329 5.31414 -6.83288 -1.42473 -3.93194 -7.53341 -1.20843 5.02207 -1.39513 -7.15498 4.11637 2.02715 -0.55628
0.00307 0.57955 -0.00605 184.60017 0 -3.24622 1.32016 2.345 -1.72419 -30.03 4.68179 0.24831 -10.18367 -68.89864 -75.63452 24.70965 76.14385 -19.49281 -2.7147 0.31745 70.12395 62.32314 22.95555 -75.6414 -30.25914 3.01118 -3.82432 4.06043 5.28303 -6.79776 -1.43084 -3.89417 -7.55602 -1.11447 5.10471 -1.42414 -7.20652 4.09208 1.98998 -0.61527
